<mxfile host="app.diagrams.net" agent="Mozilla/5.0 (X11; Ubuntu; Linux x86_64; rv:126.0) Gecko/20100101 Firefox/126.0" version="24.7.17">
  <diagram name="Página-1" id="hx0Lb48pPv-eXBzAogW2">
    <mxGraphModel dx="1364" dy="915" grid="1" gridSize="2" guides="1" tooltips="1" connect="1" arrows="1" fold="1" page="1" pageScale="1" pageWidth="827" pageHeight="1169" background="#FFFFFF" math="0" shadow="0">
      <root>
        <mxCell id="0" />
        <mxCell id="1" parent="0" />
        <mxCell id="YiMbzAxg7YAM7RZ9z_1D-37" style="edgeStyle=orthogonalEdgeStyle;rounded=0;orthogonalLoop=1;jettySize=auto;html=1;entryX=0.5;entryY=0;entryDx=0;entryDy=0;" parent="1" source="YiMbzAxg7YAM7RZ9z_1D-4" target="YiMbzAxg7YAM7RZ9z_1D-8" edge="1">
          <mxGeometry relative="1" as="geometry" />
        </mxCell>
        <mxCell id="YiMbzAxg7YAM7RZ9z_1D-39" style="edgeStyle=orthogonalEdgeStyle;rounded=0;orthogonalLoop=1;jettySize=auto;html=1;exitX=1;exitY=0.5;exitDx=0;exitDy=0;entryX=0;entryY=0.5;entryDx=0;entryDy=0;" parent="1" source="YiMbzAxg7YAM7RZ9z_1D-4" target="YiMbzAxg7YAM7RZ9z_1D-7" edge="1">
          <mxGeometry relative="1" as="geometry" />
        </mxCell>
        <mxCell id="YiMbzAxg7YAM7RZ9z_1D-45" style="edgeStyle=orthogonalEdgeStyle;rounded=0;orthogonalLoop=1;jettySize=auto;html=1;entryX=1;entryY=0.5;entryDx=0;entryDy=0;" parent="1" source="YiMbzAxg7YAM7RZ9z_1D-4" target="YiMbzAxg7YAM7RZ9z_1D-44" edge="1">
          <mxGeometry relative="1" as="geometry" />
        </mxCell>
        <mxCell id="YiMbzAxg7YAM7RZ9z_1D-56" style="rounded=0;orthogonalLoop=1;jettySize=auto;html=1;exitX=1;exitY=1;exitDx=0;exitDy=0;entryX=0;entryY=0;entryDx=0;entryDy=0;" parent="1" source="YiMbzAxg7YAM7RZ9z_1D-4" target="YiMbzAxg7YAM7RZ9z_1D-48" edge="1">
          <mxGeometry relative="1" as="geometry" />
        </mxCell>
        <mxCell id="YiMbzAxg7YAM7RZ9z_1D-4" value="Farmacia" style="rounded=0;whiteSpace=wrap;html=1;fillColor=#e1d5e7;strokeColor=#9673a6;" parent="1" vertex="1">
          <mxGeometry x="134" y="132" width="120" height="60" as="geometry" />
        </mxCell>
        <mxCell id="YiMbzAxg7YAM7RZ9z_1D-41" style="edgeStyle=orthogonalEdgeStyle;rounded=0;orthogonalLoop=1;jettySize=auto;html=1;exitX=0.5;exitY=1;exitDx=0;exitDy=0;" parent="1" source="YiMbzAxg7YAM7RZ9z_1D-5" target="YiMbzAxg7YAM7RZ9z_1D-30" edge="1">
          <mxGeometry relative="1" as="geometry" />
        </mxCell>
        <mxCell id="YiMbzAxg7YAM7RZ9z_1D-5" value="Medicamento" style="rounded=0;whiteSpace=wrap;html=1;fillColor=#e1d5e7;strokeColor=#9673a6;" parent="1" vertex="1">
          <mxGeometry x="546" y="132" width="120" height="60" as="geometry" />
        </mxCell>
        <mxCell id="YiMbzAxg7YAM7RZ9z_1D-6" value="Laboratorio" style="rounded=0;whiteSpace=wrap;html=1;fillColor=#e1d5e7;strokeColor=#9673a6;" parent="1" vertex="1">
          <mxGeometry x="134" y="424" width="120" height="60" as="geometry" />
        </mxCell>
        <mxCell id="YiMbzAxg7YAM7RZ9z_1D-40" style="edgeStyle=orthogonalEdgeStyle;rounded=0;orthogonalLoop=1;jettySize=auto;html=1;exitX=1;exitY=0.5;exitDx=0;exitDy=0;" parent="1" source="YiMbzAxg7YAM7RZ9z_1D-7" target="YiMbzAxg7YAM7RZ9z_1D-5" edge="1">
          <mxGeometry relative="1" as="geometry" />
        </mxCell>
        <mxCell id="YiMbzAxg7YAM7RZ9z_1D-7" value="Catalogación" style="rhombus;whiteSpace=wrap;html=1;fillColor=#ffe6cc;strokeColor=#d79b00;" parent="1" vertex="1">
          <mxGeometry x="360" y="122" width="80" height="80" as="geometry" />
        </mxCell>
        <mxCell id="YiMbzAxg7YAM7RZ9z_1D-38" style="edgeStyle=orthogonalEdgeStyle;rounded=0;orthogonalLoop=1;jettySize=auto;html=1;exitX=0.5;exitY=1;exitDx=0;exitDy=0;entryX=0.5;entryY=0;entryDx=0;entryDy=0;" parent="1" source="YiMbzAxg7YAM7RZ9z_1D-8" target="YiMbzAxg7YAM7RZ9z_1D-6" edge="1">
          <mxGeometry relative="1" as="geometry" />
        </mxCell>
        <mxCell id="YiMbzAxg7YAM7RZ9z_1D-8" value="Compra" style="rhombus;whiteSpace=wrap;html=1;fillColor=#ffe6cc;strokeColor=#d79b00;" parent="1" vertex="1">
          <mxGeometry x="154" y="260" width="80" height="80" as="geometry" />
        </mxCell>
        <mxCell id="YiMbzAxg7YAM7RZ9z_1D-9" value="Codigo" style="ellipse;whiteSpace=wrap;html=1;aspect=fixed;fillColor=#CC99FF;strokeColor=#9673a6;" parent="1" vertex="1">
          <mxGeometry x="460" y="34" width="44" height="44" as="geometry" />
        </mxCell>
        <mxCell id="YiMbzAxg7YAM7RZ9z_1D-16" value="Nombre" style="ellipse;whiteSpace=wrap;html=1;aspect=fixed;fillColor=#cc99ff;strokeColor=#9673a6;" parent="1" vertex="1">
          <mxGeometry x="504" y="12" width="54" height="54" as="geometry" />
        </mxCell>
        <mxCell id="YiMbzAxg7YAM7RZ9z_1D-17" value="&lt;div&gt;Tipo&lt;/div&gt;" style="ellipse;whiteSpace=wrap;html=1;aspect=fixed;fillColor=#e1d5e7;strokeColor=#9673a6;" parent="1" vertex="1">
          <mxGeometry x="556" y="2" width="40" height="40" as="geometry" />
        </mxCell>
        <mxCell id="YiMbzAxg7YAM7RZ9z_1D-18" value="Precio" style="ellipse;whiteSpace=wrap;html=1;aspect=fixed;fillColor=#e1d5e7;strokeColor=#9673a6;" parent="1" vertex="1">
          <mxGeometry x="718" y="50" width="42" height="42" as="geometry" />
        </mxCell>
        <mxCell id="YiMbzAxg7YAM7RZ9z_1D-19" value="&lt;div&gt;Unidades vendidas&lt;br&gt;&lt;/div&gt;" style="ellipse;whiteSpace=wrap;html=1;aspect=fixed;fillColor=#e1d5e7;strokeColor=#9673a6;" parent="1" vertex="1">
          <mxGeometry x="594" y="6" width="70" height="70" as="geometry" />
        </mxCell>
        <mxCell id="YiMbzAxg7YAM7RZ9z_1D-20" value="Unidades en stock" style="ellipse;whiteSpace=wrap;html=1;aspect=fixed;fillColor=#e1d5e7;strokeColor=#9673a6;" parent="1" vertex="1">
          <mxGeometry x="662" y="20" width="62" height="62" as="geometry" />
        </mxCell>
        <mxCell id="YiMbzAxg7YAM7RZ9z_1D-22" value="Código" style="ellipse;whiteSpace=wrap;html=1;aspect=fixed;fillColor=#cc99ff;strokeColor=#9673a6;" parent="1" vertex="1">
          <mxGeometry x="58" y="442" width="48" height="48" as="geometry" />
        </mxCell>
        <mxCell id="YiMbzAxg7YAM7RZ9z_1D-23" value="Nombre laboratorio" style="ellipse;whiteSpace=wrap;html=1;aspect=fixed;fillColor=#e1d5e7;strokeColor=#9673a6;" parent="1" vertex="1">
          <mxGeometry x="82" y="484" width="66" height="66" as="geometry" />
        </mxCell>
        <mxCell id="YiMbzAxg7YAM7RZ9z_1D-24" value="Teléfono" style="ellipse;whiteSpace=wrap;html=1;aspect=fixed;fillColor=#cc99ff;strokeColor=#9673a6;" parent="1" vertex="1">
          <mxGeometry x="138" y="516" width="62" height="62" as="geometry" />
        </mxCell>
        <mxCell id="YiMbzAxg7YAM7RZ9z_1D-26" value="Dirección postal" style="ellipse;whiteSpace=wrap;html=1;aspect=fixed;fillColor=#e1d5e7;strokeColor=#9673a6;" parent="1" vertex="1">
          <mxGeometry x="196" y="516" width="64" height="64" as="geometry" />
        </mxCell>
        <mxCell id="YiMbzAxg7YAM7RZ9z_1D-27" value="Fax" style="ellipse;whiteSpace=wrap;html=1;aspect=fixed;fillColor=#e1d5e7;strokeColor=#9673a6;" parent="1" vertex="1">
          <mxGeometry x="258" y="514" width="34" height="34" as="geometry" />
        </mxCell>
        <mxCell id="YiMbzAxg7YAM7RZ9z_1D-28" value="Nombre persona" style="ellipse;whiteSpace=wrap;html=1;aspect=fixed;fillColor=#e1d5e7;strokeColor=#9673a6;" parent="1" vertex="1">
          <mxGeometry x="268" y="464" width="54" height="54" as="geometry" />
        </mxCell>
        <mxCell id="YiMbzAxg7YAM7RZ9z_1D-29" value="Familias" style="rounded=0;whiteSpace=wrap;html=1;fillColor=#e1d5e7;strokeColor=#9673a6;" parent="1" vertex="1">
          <mxGeometry x="546" y="420" width="120" height="60" as="geometry" />
        </mxCell>
        <mxCell id="YiMbzAxg7YAM7RZ9z_1D-42" style="edgeStyle=orthogonalEdgeStyle;rounded=0;orthogonalLoop=1;jettySize=auto;html=1;exitX=0.5;exitY=1;exitDx=0;exitDy=0;entryX=0.5;entryY=0;entryDx=0;entryDy=0;" parent="1" source="YiMbzAxg7YAM7RZ9z_1D-30" target="YiMbzAxg7YAM7RZ9z_1D-29" edge="1">
          <mxGeometry relative="1" as="geometry" />
        </mxCell>
        <mxCell id="YiMbzAxg7YAM7RZ9z_1D-30" value="Agrupan" style="rhombus;whiteSpace=wrap;html=1;fillColor=#ffe6cc;strokeColor=#d79b00;" parent="1" vertex="1">
          <mxGeometry x="566" y="248" width="80" height="80" as="geometry" />
        </mxCell>
        <mxCell id="YiMbzAxg7YAM7RZ9z_1D-31" value="Unidades compradas" style="ellipse;whiteSpace=wrap;html=1;aspect=fixed;fillColor=#e1d5e7;strokeColor=#9673a6;" parent="1" vertex="1">
          <mxGeometry x="114" y="24" width="68" height="68" as="geometry" />
        </mxCell>
        <mxCell id="YiMbzAxg7YAM7RZ9z_1D-32" value="Fecha compra" style="ellipse;whiteSpace=wrap;html=1;aspect=fixed;fillColor=#e1d5e7;strokeColor=#9673a6;" parent="1" vertex="1">
          <mxGeometry x="212" y="34" width="54" height="54" as="geometry" />
        </mxCell>
        <mxCell id="YiMbzAxg7YAM7RZ9z_1D-46" style="edgeStyle=orthogonalEdgeStyle;rounded=0;orthogonalLoop=1;jettySize=auto;html=1;exitX=0.5;exitY=0;exitDx=0;exitDy=0;entryX=0.5;entryY=0;entryDx=0;entryDy=0;" parent="1" source="YiMbzAxg7YAM7RZ9z_1D-44" target="YiMbzAxg7YAM7RZ9z_1D-4" edge="1">
          <mxGeometry relative="1" as="geometry" />
        </mxCell>
        <mxCell id="YiMbzAxg7YAM7RZ9z_1D-44" value="Fabrica" style="rhombus;whiteSpace=wrap;fillColor=#ffe6cc;strokeColor=#d79b00;html=1;" parent="1" vertex="1">
          <mxGeometry x="18" y="122" width="80" height="80" as="geometry" />
        </mxCell>
        <mxCell id="YiMbzAxg7YAM7RZ9z_1D-51" style="rounded=0;orthogonalLoop=1;jettySize=auto;html=1;exitX=0;exitY=1;exitDx=0;exitDy=0;entryX=0.5;entryY=0;entryDx=0;entryDy=0;" parent="1" source="YiMbzAxg7YAM7RZ9z_1D-48" target="YiMbzAxg7YAM7RZ9z_1D-49" edge="1">
          <mxGeometry relative="1" as="geometry" />
        </mxCell>
        <mxCell id="YiMbzAxg7YAM7RZ9z_1D-52" style="rounded=0;orthogonalLoop=1;jettySize=auto;html=1;exitX=1;exitY=1;exitDx=0;exitDy=0;entryX=0.5;entryY=0;entryDx=0;entryDy=0;" parent="1" source="YiMbzAxg7YAM7RZ9z_1D-48" target="YiMbzAxg7YAM7RZ9z_1D-50" edge="1">
          <mxGeometry relative="1" as="geometry">
            <mxPoint x="872" y="220" as="targetPoint" />
          </mxGeometry>
        </mxCell>
        <mxCell id="YiMbzAxg7YAM7RZ9z_1D-55" style="rounded=0;orthogonalLoop=1;jettySize=auto;html=1;exitX=0.5;exitY=1;exitDx=0;exitDy=0;" parent="1" source="YiMbzAxg7YAM7RZ9z_1D-48" target="YiMbzAxg7YAM7RZ9z_1D-53" edge="1">
          <mxGeometry relative="1" as="geometry" />
        </mxCell>
        <mxCell id="YiMbzAxg7YAM7RZ9z_1D-48" value="Venta" style="rhombus;whiteSpace=wrap;html=1;fillColor=#ffe6cc;strokeColor=#d79b00;" parent="1" vertex="1">
          <mxGeometry x="342" y="256" width="80" height="80" as="geometry" />
        </mxCell>
        <mxCell id="YiMbzAxg7YAM7RZ9z_1D-49" value="Libre" style="ellipse;whiteSpace=wrap;html=1;aspect=fixed;fillColor=#e1d5e7;strokeColor=#9673a6;" parent="1" vertex="1">
          <mxGeometry x="306" y="342" width="42" height="42" as="geometry" />
        </mxCell>
        <mxCell id="YiMbzAxg7YAM7RZ9z_1D-50" value="Receta" style="ellipse;whiteSpace=wrap;html=1;aspect=fixed;fillColor=#e1d5e7;strokeColor=#9673a6;" parent="1" vertex="1">
          <mxGeometry x="421" y="342" width="42" height="42" as="geometry" />
        </mxCell>
        <mxCell id="YiMbzAxg7YAM7RZ9z_1D-59" style="edgeStyle=orthogonalEdgeStyle;rounded=0;orthogonalLoop=1;jettySize=auto;html=1;entryX=0;entryY=0.5;entryDx=0;entryDy=0;" parent="1" source="YiMbzAxg7YAM7RZ9z_1D-53" target="YiMbzAxg7YAM7RZ9z_1D-58" edge="1">
          <mxGeometry relative="1" as="geometry" />
        </mxCell>
        <mxCell id="YiMbzAxg7YAM7RZ9z_1D-53" value="Clientes" style="rounded=0;whiteSpace=wrap;html=1;fillColor=#e1d5e7;strokeColor=#9673a6;" parent="1" vertex="1">
          <mxGeometry x="320" y="572" width="120" height="60" as="geometry" />
        </mxCell>
        <mxCell id="YiMbzAxg7YAM7RZ9z_1D-61" value="" style="rounded=0;orthogonalLoop=1;jettySize=auto;html=1;fillColor=#e1d5e7;strokeColor=#333333;exitX=0.5;exitY=1;exitDx=0;exitDy=0;" parent="1" source="YiMbzAxg7YAM7RZ9z_1D-58" target="YiMbzAxg7YAM7RZ9z_1D-60" edge="1">
          <mxGeometry relative="1" as="geometry" />
        </mxCell>
        <mxCell id="YiMbzAxg7YAM7RZ9z_1D-63" style="rounded=0;orthogonalLoop=1;jettySize=auto;html=1;exitX=0.5;exitY=0;exitDx=0;exitDy=0;entryX=0.5;entryY=0;entryDx=0;entryDy=0;" parent="1" source="YiMbzAxg7YAM7RZ9z_1D-58" target="YiMbzAxg7YAM7RZ9z_1D-62" edge="1">
          <mxGeometry relative="1" as="geometry" />
        </mxCell>
        <mxCell id="YiMbzAxg7YAM7RZ9z_1D-58" value="" style="triangle;whiteSpace=wrap;html=1;rotation=90;fillColor=#ffe6cc;strokeColor=#d79b00;" parent="1" vertex="1">
          <mxGeometry x="362" y="660" width="36" height="80" as="geometry" />
        </mxCell>
        <mxCell id="YiMbzAxg7YAM7RZ9z_1D-71" style="rounded=0;orthogonalLoop=1;jettySize=auto;html=1;exitX=0.25;exitY=1;exitDx=0;exitDy=0;entryX=0.5;entryY=0;entryDx=0;entryDy=0;" parent="1" source="YiMbzAxg7YAM7RZ9z_1D-60" target="YiMbzAxg7YAM7RZ9z_1D-69" edge="1">
          <mxGeometry relative="1" as="geometry" />
        </mxCell>
        <mxCell id="YiMbzAxg7YAM7RZ9z_1D-72" style="rounded=0;orthogonalLoop=1;jettySize=auto;html=1;exitX=0.75;exitY=1;exitDx=0;exitDy=0;entryX=0.5;entryY=0;entryDx=0;entryDy=0;" parent="1" source="YiMbzAxg7YAM7RZ9z_1D-60" target="YiMbzAxg7YAM7RZ9z_1D-70" edge="1">
          <mxGeometry relative="1" as="geometry" />
        </mxCell>
        <mxCell id="YiMbzAxg7YAM7RZ9z_1D-60" value="Con Crédito" style="whiteSpace=wrap;html=1;fillColor=#e1d5e7;strokeColor=#9673a6;" parent="1" vertex="1">
          <mxGeometry x="244" y="740" width="88" height="38" as="geometry" />
        </mxCell>
        <mxCell id="YiMbzAxg7YAM7RZ9z_1D-62" value="Sin Crédito" style="whiteSpace=wrap;html=1;fillColor=#e1d5e7;strokeColor=#9673a6;" parent="1" vertex="1">
          <mxGeometry x="414" y="739" width="88" height="40" as="geometry" />
        </mxCell>
        <mxCell id="YiMbzAxg7YAM7RZ9z_1D-65" value="" style="ellipse;whiteSpace=wrap;html=1;" parent="1" vertex="1">
          <mxGeometry x="434" y="693" width="16" height="14" as="geometry" />
        </mxCell>
        <mxCell id="YiMbzAxg7YAM7RZ9z_1D-67" style="edgeStyle=orthogonalEdgeStyle;rounded=0;orthogonalLoop=1;jettySize=auto;html=1;exitX=0.5;exitY=0;exitDx=0;exitDy=0;entryX=0.103;entryY=0.539;entryDx=0;entryDy=0;entryPerimeter=0;" parent="1" source="YiMbzAxg7YAM7RZ9z_1D-58" target="YiMbzAxg7YAM7RZ9z_1D-65" edge="1">
          <mxGeometry relative="1" as="geometry" />
        </mxCell>
        <mxCell id="YiMbzAxg7YAM7RZ9z_1D-68" value="&lt;font style=&quot;font-size: 9px;&quot;&gt;Tipo&lt;/font&gt;" style="text;html=1;align=center;verticalAlign=middle;resizable=0;points=[];autosize=1;strokeColor=none;fillColor=none;" parent="1" vertex="1">
          <mxGeometry x="424" y="672" width="36" height="28" as="geometry" />
        </mxCell>
        <mxCell id="YiMbzAxg7YAM7RZ9z_1D-69" value="Datos Bancarios" style="ellipse;whiteSpace=wrap;html=1;fillColor=#cc99ff;strokeColor=#9673a6;" parent="1" vertex="1">
          <mxGeometry x="208" y="814" width="68" height="64" as="geometry" />
        </mxCell>
        <mxCell id="YiMbzAxg7YAM7RZ9z_1D-70" value="Fecha de pago" style="ellipse;whiteSpace=wrap;html=1;fillColor=#e1d5e7;strokeColor=#9673a6;" parent="1" vertex="1">
          <mxGeometry x="302" y="811" width="68" height="70" as="geometry" />
        </mxCell>
        <mxCell id="lQIjdGX5EHTLf5rlga3U-1" value="Tipo enfermedades" style="ellipse;whiteSpace=wrap;html=1;fillColor=#e1d5e7;strokeColor=#9673a6;" vertex="1" parent="1">
          <mxGeometry x="640" y="498" width="86" height="82" as="geometry" />
        </mxCell>
      </root>
    </mxGraphModel>
  </diagram>
</mxfile>
